# This file uses centimeters as units for non-parametric coordinates.

mtllib maleta.mtl
g default
v -1.646812 0.005197 0.175588
v -1.646812 0.005197 0.258612
v -1.646812 0.066192 0.175588
v -1.646812 0.066192 0.258612
v -1.282239 0.066192 0.175588
v -1.282239 0.066192 0.258612
v -1.282239 0.005197 0.175588
v -1.282239 0.005197 0.258612
vt 0.375000 0.000000
vt 0.625000 0.000000
vt 0.375000 0.250000
vt 0.625000 0.250000
vt 0.375000 0.500000
vt 0.625000 0.500000
vt 0.375000 0.750000
vt 0.625000 0.750000
vt 0.375000 1.000000
vt 0.625000 1.000000
vt 0.875000 0.000000
vt 0.875000 0.250000
vt 0.125000 0.000000
vt 0.125000 0.250000
vn -1.000000 0.000000 0.000000
vn -1.000000 0.000000 0.000000
vn -1.000000 0.000000 0.000000
vn -1.000000 0.000000 0.000000
vn -1.000000 0.000000 0.000000
vn -1.000000 0.000000 0.000000
vn 0.000000 1.000000 0.000000
vn 0.000000 1.000000 0.000000
vn 0.000000 1.000000 0.000000
vn 0.000000 1.000000 0.000000
vn 0.000000 1.000000 0.000000
vn 0.000000 1.000000 0.000000
vn 1.000000 0.000000 0.000000
vn 1.000000 0.000000 0.000000
vn 1.000000 0.000000 0.000000
vn 1.000000 0.000000 0.000000
vn 1.000000 0.000000 0.000000
vn 1.000000 0.000000 0.000000
vn 0.000000 -1.000000 0.000000
vn 0.000000 -1.000000 0.000000
vn 0.000000 -1.000000 0.000000
vn 0.000000 -1.000000 0.000000
vn 0.000000 -1.000000 0.000000
vn 0.000000 -1.000000 0.000000
vn 0.000000 0.000000 1.000000
vn 0.000000 0.000000 1.000000
vn 0.000000 0.000000 1.000000
vn 0.000000 0.000000 1.000000
vn 0.000000 0.000000 1.000000
vn 0.000000 0.000000 1.000000
vn 0.000000 0.000000 -1.000000
vn 0.000000 0.000000 -1.000000
vn 0.000000 0.000000 -1.000000
vn 0.000000 0.000000 -1.000000
vn 0.000000 0.000000 -1.000000
vn 0.000000 0.000000 -1.000000
s off
g maleta:pCube677 group2
usemtl maleta:lambert10SG2
f 1/1/1 2/2/2 3/3/3
f 3/3/4 2/2/5 4/4/6
f 3/3/7 4/4/8 5/5/9
f 5/5/10 4/4/11 6/6/12
f 5/5/13 6/6/14 7/7/15
f 7/7/16 6/6/17 8/8/18
f 7/7/19 8/8/20 1/9/21
f 1/9/22 8/8/23 2/10/24
f 2/2/25 8/11/26 4/4/27
f 4/4/28 8/11/29 6/12/30
f 7/13/31 1/1/32 5/14/33
f 5/14/34 1/1/35 3/3/36
g default
v -1.646812 0.005197 -0.178352
v -1.646812 0.005197 -0.095328
v -1.646812 0.066192 -0.178352
v -1.646812 0.066192 -0.095328
v -1.282239 0.066192 -0.178352
v -1.282239 0.066192 -0.095328
v -1.282239 0.005197 -0.178352
v -1.282239 0.005197 -0.095328
vt 0.375000 0.000000
vt 0.625000 0.000000
vt 0.375000 0.250000
vt 0.625000 0.250000
vt 0.375000 0.500000
vt 0.625000 0.500000
vt 0.375000 0.750000
vt 0.625000 0.750000
vt 0.375000 1.000000
vt 0.625000 1.000000
vt 0.875000 0.000000
vt 0.875000 0.250000
vt 0.125000 0.000000
vt 0.125000 0.250000
vn -1.000000 0.000000 0.000000
vn -1.000000 0.000000 0.000000
vn -1.000000 0.000000 0.000000
vn -1.000000 0.000000 0.000000
vn -1.000000 0.000000 0.000000
vn -1.000000 0.000000 0.000000
vn 0.000000 1.000000 0.000000
vn 0.000000 1.000000 0.000000
vn 0.000000 1.000000 0.000000
vn 0.000000 1.000000 0.000000
vn 0.000000 1.000000 0.000000
vn 0.000000 1.000000 0.000000
vn 1.000000 0.000000 0.000000
vn 1.000000 0.000000 0.000000
vn 1.000000 0.000000 0.000000
vn 1.000000 0.000000 0.000000
vn 1.000000 0.000000 0.000000
vn 1.000000 0.000000 0.000000
vn 0.000000 -1.000000 0.000000
vn 0.000000 -1.000000 0.000000
vn 0.000000 -1.000000 0.000000
vn 0.000000 -1.000000 0.000000
vn 0.000000 -1.000000 0.000000
vn 0.000000 -1.000000 0.000000
vn 0.000000 0.000000 1.000000
vn 0.000000 0.000000 1.000000
vn 0.000000 0.000000 1.000000
vn 0.000000 0.000000 1.000000
vn 0.000000 0.000000 1.000000
vn 0.000000 0.000000 1.000000
vn 0.000000 0.000000 -1.000000
vn 0.000000 0.000000 -1.000000
vn 0.000000 0.000000 -1.000000
vn 0.000000 0.000000 -1.000000
vn 0.000000 0.000000 -1.000000
vn 0.000000 0.000000 -1.000000
s off
g group2 maleta:pCube676
usemtl maleta:lambert10SG2
f 9/15/37 10/16/38 11/17/39
f 11/17/40 10/16/41 12/18/42
f 11/17/43 12/18/44 13/19/45
f 13/19/46 12/18/47 14/20/48
f 13/19/49 14/20/50 15/21/51
f 15/21/52 14/20/53 16/22/54
f 15/21/55 16/22/56 9/23/57
f 9/23/58 16/22/59 10/24/60
f 10/16/61 16/25/62 12/18/63
f 12/18/64 16/25/65 14/26/66
f 15/27/67 9/15/68 13/28/69
f 13/28/70 9/15/71 11/17/72
g default
v -1.646708 0.005197 0.259021
v -1.563684 0.005197 0.259021
v -1.646708 0.066192 0.259021
v -1.563684 0.066192 0.259021
v -1.646708 0.066192 -0.105553
v -1.563684 0.066192 -0.105553
v -1.646708 0.005197 -0.105553
v -1.563684 0.005197 -0.105553
vt 0.375000 0.000000
vt 0.625000 0.000000
vt 0.375000 0.250000
vt 0.625000 0.250000
vt 0.375000 0.500000
vt 0.625000 0.500000
vt 0.375000 0.750000
vt 0.625000 0.750000
vt 0.375000 1.000000
vt 0.625000 1.000000
vt 0.875000 0.000000
vt 0.875000 0.250000
vt 0.125000 0.000000
vt 0.125000 0.250000
vn 0.000000 0.000000 1.000000
vn 0.000000 0.000000 1.000000
vn 0.000000 0.000000 1.000000
vn 0.000000 0.000000 1.000000
vn 0.000000 0.000000 1.000000
vn 0.000000 0.000000 1.000000
vn 0.000000 1.000000 0.000000
vn 0.000000 1.000000 0.000000
vn 0.000000 1.000000 0.000000
vn 0.000000 1.000000 0.000000
vn 0.000000 1.000000 0.000000
vn 0.000000 1.000000 0.000000
vn 0.000000 0.000000 -1.000000
vn 0.000000 0.000000 -1.000000
vn 0.000000 0.000000 -1.000000
vn 0.000000 0.000000 -1.000000
vn 0.000000 0.000000 -1.000000
vn 0.000000 0.000000 -1.000000
vn 0.000000 -1.000000 0.000000
vn 0.000000 -1.000000 0.000000
vn 0.000000 -1.000000 0.000000
vn 0.000000 -1.000000 0.000000
vn 0.000000 -1.000000 0.000000
vn 0.000000 -1.000000 0.000000
vn 1.000000 0.000000 0.000000
vn 1.000000 0.000000 0.000000
vn 1.000000 0.000000 0.000000
vn 1.000000 0.000000 0.000000
vn 1.000000 0.000000 0.000000
vn 1.000000 0.000000 0.000000
vn -1.000000 0.000000 0.000000
vn -1.000000 0.000000 0.000000
vn -1.000000 0.000000 0.000000
vn -1.000000 0.000000 0.000000
vn -1.000000 0.000000 0.000000
vn -1.000000 0.000000 0.000000
s off
g group2 maleta:pCube679
usemtl maleta:lambert10SG2
f 17/29/73 18/30/74 19/31/75
f 19/31/76 18/30/77 20/32/78
f 19/31/79 20/32/80 21/33/81
f 21/33/82 20/32/83 22/34/84
f 21/33/85 22/34/86 23/35/87
f 23/35/88 22/34/89 24/36/90
f 23/35/91 24/36/92 17/37/93
f 17/37/94 24/36/95 18/38/96
f 18/30/97 24/39/98 20/32/99
f 20/32/100 24/39/101 22/40/102
f 23/41/103 17/29/104 21/42/105
f 21/42/106 17/29/107 19/31/108
g default
v -1.294215 -0.374784 0.795372
v 1.263454 -0.374784 0.795372
v -1.294215 0.446172 0.795372
v 1.263454 0.446172 0.795372
v -1.294215 0.446172 -0.742509
v 1.263454 0.446172 -0.742509
v -1.294215 -0.374784 -0.742509
v 1.263454 -0.374784 -0.742509
v -1.294215 0.446172 0.795372
v 1.263454 0.446172 0.795372
v 1.263454 0.446172 -0.742509
v -1.294215 0.446172 -0.742509
v -1.294215 -0.374784 0.795372
v 1.263454 -0.374784 0.795372
v 1.263454 0.446172 0.795372
v -1.294215 0.446172 0.795372
v 1.263454 0.446172 -0.742509
v 1.263454 -0.374784 -0.742509
v -1.294215 -0.374784 -0.742509
v -1.294215 0.446172 -0.742509
vt -0.001564 0.997561
vt -0.001564 -0.005568
vt 1.001564 0.997561
vt 1.001564 -0.005568
vt -0.004977 0.998793
vt -0.004977 -0.011161
vt 1.004977 0.998793
vt 1.004977 -0.011161
vt 0.001849 0.992269
vt 0.001849 -0.004034
vt 0.998151 0.992269
vt 0.998151 -0.004034
vt 0.004124 0.990279
vt 0.004124 -0.001473
vt 0.995876 0.990279
vt 0.995876 -0.001473
vt -0.012223 0.382825
vt 0.610991 -0.018895
vt 0.389498 1.006038
vt 1.012711 0.604318
vt -0.014980 0.383896
vt 0.616529 -0.017566
vt 0.386482 1.015405
vt 1.017991 0.613943
vn 0.000000 0.000000 1.000000
vn 0.000000 0.000000 1.000000
vn 0.000000 0.000000 1.000000
vn 0.000000 0.000000 1.000000
vn 0.000000 0.000000 1.000000
vn 0.000000 0.000000 1.000000
vn 0.000000 1.000000 0.000000
vn 0.000000 1.000000 0.000000
vn 0.000000 1.000000 0.000000
vn 0.000000 1.000000 0.000000
vn 0.000000 1.000000 0.000000
vn 0.000000 1.000000 0.000000
vn 0.000000 0.000000 -1.000000
vn 0.000000 0.000000 -1.000000
vn 0.000000 0.000000 -1.000000
vn 0.000000 0.000000 -1.000000
vn 0.000000 0.000000 -1.000000
vn 0.000000 0.000000 -1.000000
vn 0.000000 -1.000000 0.000000
vn 0.000000 -1.000000 0.000000
vn 0.000000 -1.000000 0.000000
vn 0.000000 -1.000000 0.000000
vn 0.000000 -1.000000 0.000000
vn 0.000000 -1.000000 0.000000
vn 1.000000 0.000000 0.000000
vn 1.000000 0.000000 0.000000
vn 1.000000 0.000000 0.000000
vn 1.000000 0.000000 0.000000
vn 1.000000 0.000000 0.000000
vn 1.000000 0.000000 0.000000
vn -1.000000 0.000000 0.000000
vn -1.000000 0.000000 0.000000
vn -1.000000 0.000000 0.000000
vn -1.000000 0.000000 0.000000
vn -1.000000 0.000000 0.000000
vn -1.000000 0.000000 0.000000
s off
g group2 maleta:pCube680group3
usemtl maleta:lambert10SG
f 37/43/109 38/44/110 40/45/111
f 40/45/112 38/44/113 39/46/114
f 27/47/115 28/48/116 29/49/117
f 29/49/118 28/48/119 30/50/120
f 44/51/121 41/52/122 43/53/123
f 43/53/124 41/52/125 42/54/126
f 31/55/127 32/56/128 25/57/129
f 25/57/130 32/56/131 26/58/132
f 26/59/133 32/60/134 34/61/135
f 34/61/136 32/60/137 35/62/138
f 31/63/139 25/64/140 36/65/141
f 36/65/142 25/64/143 33/66/144
