# This file uses centimeters as units for non-parametric coordinates.

mtllib ventana.mtl
g default
v 0.024586 -0.009878 -0.125293
v 0.024586 1.503222 -0.125293
v -0.864862 -0.012094 -0.331892
v -0.010939 -0.009878 0.027649
v -0.010939 1.503222 0.027649
v -0.900387 -0.012094 -0.178950
vt 0.375000 0.312500
vt 0.458333 0.312500
vt 0.375000 0.688440
vt 0.458333 0.688440
vt 0.541667 0.312500
vt 0.541667 0.688440
vt 0.625000 0.312500
vt 0.625000 0.688440
vt 0.421875 0.020934
vt 0.656250 0.156250
vt 0.421875 0.291566
vt 0.421875 0.979066
vt 0.421875 0.708434
vt 0.656250 0.843750
vn 0.974067 0.000000 0.226259
vn 0.974067 0.000000 0.226259
vn 0.974067 0.000000 0.226259
vn 0.974066 -0.000000 0.226262
vn 0.974066 -0.000000 0.226262
vn 0.974066 -0.000000 0.226262
vn -0.834297 0.516132 -0.193796
vn -0.834298 0.516131 -0.193793
vn -0.834298 0.516131 -0.193793
vn -0.834298 0.516131 -0.193793
vn -0.834298 0.516131 -0.193793
vn -0.834299 0.516131 -0.193789
vn 0.002363 -0.999997 0.000549
vn 0.002363 -0.999997 0.000549
vn 0.002363 -0.999997 0.000549
vn 0.002363 -0.999997 0.000549
vn 0.002363 -0.999997 0.000549
vn 0.002363 -0.999997 0.000549
vn 0.226254 0.000000 -0.974068
vn 0.226254 0.000000 -0.974068
vn 0.226254 0.000000 -0.974068
vn -0.226254 0.000000 0.974068
vn -0.226254 0.000000 0.974068
vn -0.226254 0.000000 0.974068
s off
g Casa_gravity_falls:pPrism4 group4
usemtl Casa_gravity_falls:lambert6SG
f 1/1/1 2/2/2 4/3/3
f 4/3/4 2/2/5 5/4/6
f 2/2/7 3/5/8 5/4/9
f 5/4/10 3/5/11 6/6/12
f 3/5/13 1/7/14 6/6/15
f 6/6/16 1/7/17 4/8/18
f 1/9/19 3/10/20 2/11/21
f 4/12/22 5/13/23 6/14/24
