# This file uses centimeters as units for non-parametric coordinates.

mtllib mostrador_sin_triangular.mtl
g default
v -0.500000 -0.529241 1.407473
v 0.500000 -0.529241 1.407472
v -0.500000 0.470759 1.407473
v 0.500000 0.470759 1.407472
v -0.500000 0.470759 -1.407473
v 0.500000 0.470759 -1.407472
v -0.500000 -0.529241 -1.407473
v 0.500000 -0.529241 -1.407472
v 0.500000 -0.529241 -0.494371
v 0.500000 -0.529241 0.494371
v 0.500000 0.470759 -0.494371
v 0.500000 0.470759 0.494371
v 0.500000 -0.434563 -0.494371
v 0.500000 -0.434563 0.494371
v 0.500000 0.376081 -0.494371
v 0.500000 0.376081 0.494371
v -0.357282 -0.434563 -0.494371
v -0.357282 -0.434563 0.494371
v -0.357282 0.376081 -0.494371
v -0.357282 0.376081 0.494371
v 0.500000 0.376797 -1.321676
v 0.500000 -0.435279 -1.321676
v 0.500000 0.376797 -0.580168
v 0.500000 -0.435279 -0.580168
v -0.334556 0.376797 -1.321676
v -0.334556 -0.435279 -1.321676
v -0.334556 0.376797 -0.580168
v -0.334556 -0.435279 -0.580168
v 0.500000 -0.431150 1.317905
v 0.500000 0.372668 1.317905
v 0.500000 -0.431150 0.583938
v 0.500000 0.372668 0.583938
v -0.444387 -0.431150 1.317905
v -0.444387 0.372668 1.317905
v -0.444387 -0.431150 0.583938
v -0.444387 0.372668 0.583938
vt -0.000311 -0.127568
vt 0.625000 0.000000
vt 0.375000 0.250000
vt 0.625000 0.250000
vt 0.375000 0.500000
vt 0.625000 0.500000
vt 0.000000 1.000000
vt 1.000000 1.000000
vt 1.000000 0.000000
vt 0.000000 0.000000
vt 0.875000 0.000000
vt 0.875000 0.250000
vt 0.000311 1.128350
vt 1.000311 1.127568
vt 0.625000 0.000000
vt 0.875000 0.000000
vt 0.875000 0.250000
vt 0.625000 0.250000
vt 1.000000 0.000000
vt 1.000000 1.000000
vt 1.000000 1.000000
vt 1.000000 -0.000000
vt 0.000000 1.000000
vt 0.000000 0.000000
vt 0.000000 -0.000000
vt 0.000000 1.000000
vt 1.000000 0.000000
vt 1.000000 1.000000
vt 1.000000 0.000000
vt 1.000000 1.000000
vt 0.000000 1.000000
vt 0.000000 0.000000
vt 0.000000 1.000000
vt 0.000000 0.000000
vt 1.000000 1.000000
vt 1.000000 0.000000
vt 1.000000 1.000000
vt 1.000000 0.000000
vt 0.000000 0.000000
vt 0.000000 1.000000
vt 0.000000 0.000000
vt 0.000000 1.000000
vt 0.000000 0.000000
vt 1.000000 0.000000
vt 1.000000 1.000000
vt 0.000000 1.000000
vt 0.000000 1.000000
vt 1.000000 1.000000
vt 1.000000 0.000000
vt 0.000000 0.000000
vt 0.007151 0.000882
vt 0.991420 0.000882
vt 0.991420 0.999118
vt 0.007151 0.999118
vt 0.987226 0.000000
vt 0.987226 1.000000
vt 0.013267 1.000000
vt 0.013267 0.000000
vt 0.001960 0.994915
vt 0.001960 0.005085
vt 0.994690 0.005085
vt 0.994690 0.994915
vt 1.419706 -0.419706
vt 1.419706 1.419705
vt 0.823044 1.419706
vt 0.176956 1.419706
vt -0.419706 1.419705
vt -0.419706 -0.419706
vt 0.176956 -0.419706
vt 0.823044 -0.419706
vt 1.363642 1.246871
vt 1.363642 -0.246871
vt 0.879108 -0.246871
vt 0.879108 1.246871
vt 0.823044 1.245554
vt 0.823044 -0.245554
vt 0.176955 -0.245554
vt 0.176955 1.245554
vt 0.118429 -0.239276
vt -0.361179 -0.239276
vt -0.361179 1.239276
vt 0.118429 1.239276
vt 1.000000 0.901909
vt 1.000000 0.098091
vt 0.055613 0.098091
vt 0.055613 0.901909
vt 1.000000 1.000000
vt 1.000000 0.000000
vt 0.000000 0.000000
vt 0.000000 1.000000
vt 1.000000 1.000000
vt 1.000000 0.000000
vt 0.000000 0.000000
vt 0.000000 1.000000
vt 1.000000 0.000000
vt 1.000000 1.000000
vt 0.000000 1.000000
vt 0.000000 0.000000
vt 1.000000 0.000000
vt 1.000000 1.000000
vt 0.000000 1.000000
vt 0.000000 0.000000
vt 1.000000 -0.000000
vt 1.000000 1.000000
vt 0.000000 1.000000
vt 0.000000 -0.000000
vt 0.999689 -0.128350
vn 0.000000 0.000000 1.000000
vn 0.000000 0.000000 1.000000
vn 0.000000 0.000000 1.000000
vn 0.000000 0.000000 1.000000
vn 0.000000 1.000000 -0.000000
vn 0.000000 1.000000 -0.000000
vn 0.000000 1.000000 -0.000000
vn 0.000000 1.000000 -0.000000
vn 0.000000 0.000000 -1.000000
vn 0.000000 0.000000 -1.000000
vn 0.000000 0.000000 -1.000000
vn 0.000000 0.000000 -1.000000
vn 0.000000 -1.000000 -0.000000
vn 0.000000 -1.000000 -0.000000
vn 0.000000 -1.000000 -0.000000
vn 0.000000 -1.000000 -0.000000
vn 1.000000 0.000000 0.000000
vn 1.000000 0.000000 0.000000
vn 1.000000 0.000000 0.000000
vn 1.000000 0.000000 0.000000
vn -1.000000 0.000000 0.000000
vn -1.000000 0.000000 0.000000
vn -1.000000 0.000000 0.000000
vn -1.000000 0.000000 0.000000
vn -0.000000 0.000000 0.000000
vn -0.000000 0.000000 0.000000
vn -1.000000 0.000000 0.000000
vn -1.000000 0.000000 0.000000
vn 1.000000 0.000000 0.000000
vn 1.000000 0.000000 0.000000
vn 1.000000 0.000000 0.000000
vn 1.000000 0.000000 0.000000
vn -0.000000 0.000000 0.000000
vn -0.000000 0.000000 0.000000
vn -1.000000 0.000000 0.000000
vn -1.000000 0.000000 0.000000
vn 1.000000 0.000000 0.000000
vn 1.000000 0.000000 0.000000
vn 1.000000 0.000000 0.000000
vn 1.000000 0.000000 0.000000
vn 0.000000 1.000000 0.000000
vn 0.000000 1.000000 0.000000
vn 0.000000 1.000000 0.000000
vn 0.000000 1.000000 0.000000
vn 0.000000 0.000000 1.000000
vn 0.000000 0.000000 1.000000
vn 0.000000 0.000000 1.000000
vn 0.000000 0.000000 1.000000
vn 0.000000 -1.000000 0.000000
vn 0.000000 -1.000000 0.000000
vn 0.000000 -1.000000 0.000000
vn 0.000000 -1.000000 0.000000
vn 0.000000 0.000000 -1.000000
vn 0.000000 0.000000 -1.000000
vn 0.000000 0.000000 -1.000000
vn 0.000000 0.000000 -1.000000
vn 1.000000 0.000000 0.000000
vn 1.000000 0.000000 0.000000
vn 1.000000 0.000000 0.000000
vn 1.000000 0.000000 0.000000
vn 1.000000 0.000000 0.000000
vn 1.000000 0.000000 0.000000
vn 1.000000 0.000000 0.000000
vn 1.000000 0.000000 0.000000
vn 1.000000 0.000000 0.000000
vn 1.000000 0.000000 0.000000
vn 1.000000 0.000000 0.000000
vn 1.000000 0.000000 0.000000
vn 1.000000 0.000000 0.000000
vn 1.000000 0.000000 0.000000
vn 1.000000 0.000000 0.000000
vn 1.000000 0.000000 0.000000
vn 1.000000 0.000000 0.000000
vn 1.000000 0.000000 0.000000
vn 1.000000 0.000000 0.000000
vn 1.000000 0.000000 0.000000
vn 0.000000 0.000000 1.000000
vn 0.000000 0.000000 1.000000
vn 0.000000 0.000000 1.000000
vn 0.000000 0.000000 1.000000
vn 0.000000 -1.000000 0.000000
vn 0.000000 -1.000000 0.000000
vn 0.000000 -1.000000 0.000000
vn 0.000000 -1.000000 0.000000
vn 0.000000 0.000000 -1.000000
vn 0.000000 0.000000 -1.000000
vn 0.000000 0.000000 -1.000000
vn 0.000000 0.000000 -1.000000
vn 0.000000 1.000000 0.000000
vn 0.000000 1.000000 0.000000
vn 0.000000 1.000000 0.000000
vn 0.000000 1.000000 0.000000
vn 0.000000 0.000000 -1.000000
vn 0.000000 0.000000 -1.000000
vn 0.000000 0.000000 -1.000000
vn 0.000000 0.000000 -1.000000
vn 0.000000 1.000000 -0.000000
vn 0.000000 1.000000 -0.000000
vn 0.000000 1.000000 -0.000000
vn 0.000000 1.000000 -0.000000
vn 0.000000 0.000000 1.000000
vn 0.000000 0.000000 1.000000
vn 0.000000 0.000000 1.000000
vn 0.000000 0.000000 1.000000
vn 0.000000 -1.000000 -0.000000
vn 0.000000 -1.000000 -0.000000
vn 0.000000 -1.000000 -0.000000
vn 0.000000 -1.000000 -0.000000
s off
g barril:pCube1
usemtl barril:lambert1SG
f 1/43/1 2/44/2 4/45/3 3/46/4
f 3/3/5 4/4/6 6/6/7 5/5/8
f 5/47/9 6/48/10 8/49/11 7/50/12
f 7/7/13 8/8/14 2/9/15 1/10/16
f 18/51/17 17/52/18 19/53/19 20/54/20
f 7/1/21 1/13/22 3/14/23 5/107/24
f 2/2/25 8/11/26 9/16/27 10/15/28
f 26/55/29 25/56/30 27/57/31 28/58/32
f 6/12/33 4/4/34 12/18/35 11/17/36
f 34/59/37 33/60/38 35/61/39 36/62/40
f 14/19/41 13/20/42 17/23/43 18/24/44
f 13/99/45 15/100/46 19/101/47 17/102/48
f 15/21/49 16/22/50 20/25/51 19/26/52
f 16/87/53 14/88/54 18/89/55 20/90/56
f 8/63/57 6/64/58 11/65/59 12/66/60 4/67/61 2/68/62 10/69/63 9/70/64 21/71/65 22/72/66 24/73/67 23/74/68 15/75/69 13/76/70 14/77/71 16/78/72 31/79/73 29/80/74 30/81/75 32/82/76
f 22/103/77 21/104/78 25/105/79 26/106/80
f 21/28/81 23/29/82 27/32/83 25/33/84
f 23/91/85 24/92/86 28/93/87 27/94/88
f 24/27/89 22/30/90 26/31/91 28/34/92
f 30/83/93 29/84/94 33/85/95 34/86/96
f 29/36/97 31/37/98 35/40/99 33/41/100
f 31/95/101 32/96/102 36/97/103 35/98/104
f 32/35/105 30/38/106 34/39/107 36/42/108
g default
v -0.615808 0.456290 1.502018
v 0.615808 0.456290 1.502018
v -0.615808 0.606000 1.502018
v 0.615808 0.606000 1.502018
v -0.615808 0.606000 -1.502018
v 0.615808 0.606000 -1.502018
v -0.615808 0.456290 -1.502018
v 0.615808 0.456290 -1.502018
vt 0.113367 1.243966
vt 0.114516 -0.247393
vt 0.614546 -0.243965
vt 0.613397 1.247394
vt 0.612511 1.252741
vt 0.613801 -0.248853
vt 0.375000 0.750000
vt 0.625000 0.750000
vt 0.375000 1.000000
vt 0.625000 1.000000
vt 0.850237 -0.800665
vt 0.857089 1.666967
vt 0.992780 2.151685
vt 0.998333 -1.186571
vt -0.000000 -0.000000
vt 1.000000 -0.000000
vt 1.000000 1.000000
vt -0.000000 1.000000
vt 0.370135 1.667107
vt 0.363283 -0.800525
vt 0.339868 -1.151685
vt 0.334315 2.186572
vt 0.115402 -0.252740
vt 0.114112 1.248854
vn 0.000000 0.000000 1.000000
vn 0.000000 0.000000 1.000000
vn 0.000000 0.000000 1.000000
vn 0.000000 0.000000 1.000000
vn 0.000000 1.000000 0.000000
vn 0.000000 1.000000 0.000000
vn 0.000000 1.000000 0.000000
vn 0.000000 1.000000 0.000000
vn 0.000000 0.000000 -1.000000
vn 0.000000 0.000000 -1.000000
vn 0.000000 0.000000 -1.000000
vn 0.000000 0.000000 -1.000000
vn 0.000000 -1.000000 0.000000
vn 0.000000 -1.000000 0.000000
vn 0.000000 -1.000000 0.000000
vn 0.000000 -1.000000 0.000000
vn 1.000000 0.000000 0.000000
vn 1.000000 0.000000 0.000000
vn 1.000000 0.000000 0.000000
vn 1.000000 0.000000 0.000000
vn -1.000000 0.000000 0.000000
vn -1.000000 0.000000 0.000000
vn -1.000000 0.000000 0.000000
vn -1.000000 0.000000 0.000000
s off
g barril:pCube2
usemtl barril:lambert1SG
f 37/108/109 38/109/110 40/110/111 39/111/112
f 39/122/113 40/123/114 42/124/115 41/125/116
f 41/112/117 42/113/118 44/130/119 43/131/120
f 43/114/121 44/115/122 38/117/123 37/116/124
f 38/118/125 44/119/126 42/126/127 40/127/128
f 43/120/129 37/121/130 39/128/131 41/129/132
