# This file uses centimeters as units for non-parametric coordinates.

mtllib mostrador.mtl
g default
v -0.500000 -0.529241 1.407472
v 0.500000 -0.529241 1.407472
v -0.500000 0.470759 1.407472
v 0.500000 0.470759 1.407472
v -0.500000 0.470759 -1.407472
v 0.500000 0.470759 -1.407472
v -0.500000 -0.529241 -1.407472
v 0.500000 -0.529241 -1.407472
v 0.500000 -0.529241 -0.494371
v 0.500000 -0.529241 0.494371
v 0.500000 0.470759 -0.494371
v 0.500000 0.470759 0.494371
v 0.500000 -0.434563 -0.494371
v 0.500000 -0.434563 0.494371
v 0.500000 0.376081 -0.494371
v 0.500000 0.376081 0.494371
v -0.357282 -0.434563 -0.494371
v -0.357282 -0.434563 0.494371
v -0.357282 0.376081 -0.494371
v -0.357282 0.376081 0.494371
v 0.500000 0.376797 -1.321676
v 0.500000 -0.435279 -1.321676
v 0.500000 0.376797 -0.580168
v 0.500000 -0.435279 -0.580168
v -0.334556 0.376797 -1.321676
v -0.334556 -0.435279 -1.321676
v -0.334556 0.376797 -0.580168
v -0.334556 -0.435279 -0.580168
v 0.500000 -0.431150 1.317905
v 0.500000 0.372668 1.317905
v 0.500000 -0.431150 0.583938
v 0.500000 0.372668 0.583938
v -0.444387 -0.431150 1.317905
v -0.444387 0.372668 1.317905
v -0.444387 -0.431150 0.583938
v -0.444387 0.372668 0.583938
vt -0.000311 -0.127568
vt 0.625000 0.000000
vt 0.375000 0.250000
vt 0.625000 0.250000
vt 0.375000 0.500000
vt 0.625000 0.500000
vt 0.000000 1.000000
vt 1.000000 1.000000
vt 1.000000 0.000000
vt 0.000000 0.000000
vt 0.875000 0.000000
vt 0.875000 0.250000
vt 0.000311 1.128350
vt 1.000311 1.127568
vt 0.625000 0.000000
vt 0.875000 0.000000
vt 0.875000 0.250000
vt 0.625000 0.250000
vt 1.000000 0.000000
vt 1.000000 1.000000
vt 1.000000 1.000000
vt 1.000000 -0.000000
vt 0.000000 1.000000
vt 0.000000 0.000000
vt 0.000000 -0.000000
vt 0.000000 1.000000
vt 1.000000 0.000000
vt 1.000000 1.000000
vt 1.000000 0.000000
vt 1.000000 1.000000
vt 0.000000 1.000000
vt 0.000000 0.000000
vt 0.000000 1.000000
vt 0.000000 0.000000
vt 1.000000 1.000000
vt 1.000000 0.000000
vt 1.000000 1.000000
vt 1.000000 0.000000
vt 0.000000 0.000000
vt 0.000000 1.000000
vt 0.000000 0.000000
vt 0.000000 1.000000
vt 0.000000 0.000000
vt 1.000000 0.000000
vt 1.000000 1.000000
vt 0.000000 1.000000
vt 0.000000 1.000000
vt 1.000000 1.000000
vt 1.000000 0.000000
vt 0.000000 0.000000
vt 0.007151 0.000882
vt 0.991420 0.000882
vt 0.991420 0.999118
vt 0.007151 0.999118
vt 0.987226 0.000000
vt 0.987226 1.000000
vt 0.013267 1.000000
vt 0.013267 0.000000
vt 0.001960 0.994915
vt 0.001960 0.005085
vt 0.994690 0.005085
vt 0.994690 0.994915
vt 1.419706 -0.419706
vt 1.419706 1.419705
vt 0.823044 1.419706
vt 0.176956 1.419706
vt -0.419706 1.419705
vt -0.419706 -0.419706
vt 0.176956 -0.419706
vt 0.823044 -0.419706
vt 1.363642 1.246871
vt 1.363642 -0.246871
vt 0.879108 -0.246871
vt 0.879108 1.246871
vt 0.823044 1.245554
vt 0.823044 -0.245554
vt 0.176955 -0.245554
vt 0.176955 1.245554
vt 0.118429 -0.239276
vt -0.361179 -0.239276
vt -0.361179 1.239276
vt 0.118429 1.239276
vt 1.000000 0.901909
vt 1.000000 0.098091
vt 0.055613 0.098091
vt 0.055613 0.901909
vt 1.000000 1.000000
vt 1.000000 0.000000
vt 0.000000 0.000000
vt 0.000000 1.000000
vt 1.000000 1.000000
vt 1.000000 0.000000
vt 0.000000 0.000000
vt 0.000000 1.000000
vt 1.000000 0.000000
vt 1.000000 1.000000
vt 0.000000 1.000000
vt 0.000000 0.000000
vt 1.000000 0.000000
vt 1.000000 1.000000
vt 0.000000 1.000000
vt 0.000000 0.000000
vt 1.000000 -0.000000
vt 1.000000 1.000000
vt 0.000000 1.000000
vt 0.000000 -0.000000
vt 0.999689 -0.128350
vn 0.000000 0.000000 1.000000
vn 0.000000 0.000000 1.000000
vn 0.000000 0.000000 1.000000
vn -0.000000 0.000000 1.000000
vn 0.000000 1.000000 0.000000
vn 0.000000 1.000000 -0.000000
vn 0.000000 1.000000 -0.000000
vn 0.000000 1.000000 -0.000000
vn 0.000000 0.000000 -1.000000
vn 0.000000 0.000000 -1.000000
vn 0.000000 0.000000 -1.000000
vn 0.000000 0.000000 -1.000000
vn 0.000000 -1.000000 0.000000
vn 0.000000 -1.000000 0.000000
vn 0.000000 -1.000000 0.000000
vn 0.000000 -1.000000 0.000000
vn 1.000000 0.000000 0.000000
vn 1.000000 0.000000 0.000000
vn 1.000000 0.000000 0.000000
vn 1.000000 0.000000 0.000000
vn -1.000000 0.000000 0.000000
vn -1.000000 0.000000 0.000000
vn -1.000000 0.000000 0.000000
vn -1.000000 0.000000 0.000000
vn -0.000000 0.000000 0.000000
vn -0.000000 0.000000 0.000000
vn -1.000000 0.000000 0.000000
vn -0.703093 0.711098 0.000000
vn 1.000000 0.000000 0.000000
vn 1.000000 0.000000 0.000000
vn 1.000000 0.000000 0.000000
vn 1.000000 0.000000 0.000000
vn -0.000000 0.000000 0.000000
vn -0.000000 -0.000000 0.000000
vn -1.000000 -0.000000 0.000000
vn -0.829134 -0.559050 0.000000
vn 1.000000 0.000000 0.000000
vn 1.000000 0.000000 0.000000
vn 1.000000 0.000000 0.000000
vn 1.000000 0.000000 0.000000
vn 0.000000 1.000000 0.000000
vn 0.000000 1.000000 0.000000
vn 0.000000 1.000000 0.000000
vn 0.000000 1.000000 0.000000
vn 0.000000 0.000000 1.000000
vn 0.000000 0.000000 1.000000
vn 0.000000 0.000000 1.000000
vn 0.000000 0.000000 1.000000
vn 0.000000 -1.000000 0.000000
vn 0.000000 -1.000000 0.000000
vn 0.000000 -1.000000 0.000000
vn 0.000000 -1.000000 0.000000
vn 0.000000 0.000000 -1.000000
vn 0.000000 0.000000 -1.000000
vn 0.000000 0.000000 -1.000000
vn 0.000000 0.000000 -1.000000
vn 1.000000 0.000000 0.000000
vn 1.000000 0.000000 0.000000
vn 1.000000 0.000000 0.000000
vn 1.000000 0.000000 0.000000
vn 1.000000 0.000000 0.000000
vn 1.000000 0.000000 0.000000
vn 1.000000 -0.000000 0.000000
vn 1.000000 0.000000 0.000000
vn 1.000000 0.000000 0.000000
vn 1.000000 0.000000 0.000000
vn 1.000000 0.000000 0.000000
vn 1.000000 -0.000000 0.000000
vn 1.000000 -0.000000 0.000000
vn 1.000000 0.000000 0.000000
vn 1.000000 -0.000000 0.000000
vn 1.000000 -0.000000 0.000000
vn 1.000000 0.000001 0.000000
vn 1.000000 -0.000000 0.000000
vn 1.000000 0.000000 0.000000
vn 1.000000 0.000000 0.000000
vn 0.000000 0.000000 1.000000
vn 0.000000 0.000000 1.000000
vn 0.000000 0.000000 1.000000
vn 0.000000 0.000000 1.000000
vn 0.000000 -1.000000 0.000000
vn 0.000000 -1.000000 0.000000
vn 0.000000 -1.000000 0.000000
vn 0.000000 -1.000000 0.000000
vn 0.000000 0.000000 -1.000000
vn 0.000000 0.000000 -1.000000
vn 0.000000 0.000000 -1.000000
vn 0.000000 0.000000 -1.000000
vn 0.000000 1.000000 0.000000
vn 0.000000 1.000000 0.000000
vn 0.000000 1.000000 0.000000
vn 0.000000 1.000000 0.000000
vn 0.000000 0.000000 -1.000000
vn 0.000000 0.000000 -1.000000
vn 0.000000 0.000000 -1.000000
vn 0.000000 0.000000 -1.000000
vn 0.000000 1.000000 -0.000000
vn 0.000000 1.000000 -0.000000
vn 0.000000 1.000000 -0.000000
vn 0.000000 1.000000 -0.000000
vn 0.000000 0.000000 1.000000
vn 0.000000 0.000000 1.000000
vn 0.000000 0.000000 1.000000
vn 0.000000 0.000000 1.000000
vn 0.000000 -1.000000 -0.000000
vn 0.000000 -1.000000 -0.000000
vn 0.000000 -1.000000 -0.000000
vn 0.000000 -1.000000 -0.000000
s 1
g barril:pCube1
usemtl barril:lambert1SG
f 1/43/1 2/44/2 3/46/3
f 3/46/3 2/44/2 4/45/4
s 2
f 3/3/5 4/4/6 5/5/7
f 5/5/7 4/4/6 6/6/8
s 3
f 5/47/9 6/48/10 7/50/11
f 7/50/11 6/48/10 8/49/12
s 4
f 7/7/13 8/8/14 1/10/15
f 1/10/15 8/8/14 2/9/16
s 5
f 18/51/17 17/52/18 20/54/19
f 20/54/19 17/52/18 19/53/20
s 6
f 7/1/21 1/13/22 5/107/23
f 5/107/23 1/13/22 3/14/24
s 7
f 2/2/25 8/11/26 10/15/27
f 10/15/27 8/11/26 9/16/28
s 8
f 26/55/29 25/56/30 28/58/31
f 28/58/31 25/56/30 27/57/32
s 9
f 6/12/33 4/4/34 11/17/35
f 11/17/35 4/4/34 12/18/36
s 10
f 34/59/37 33/60/38 36/62/39
f 36/62/39 33/60/38 35/61/40
s 11
f 14/19/41 13/20/42 18/24/43
f 18/24/43 13/20/42 17/23/44
s 12
f 13/99/45 15/100/46 17/102/47
f 17/102/47 15/100/46 19/101/48
s 13
f 15/21/49 16/22/50 19/26/51
f 19/26/51 16/22/50 20/25/52
s 14
f 16/87/53 14/88/54 20/90/55
f 20/90/55 14/88/54 18/89/56
s 15
f 8/63/57 6/64/58 22/72/59
f 22/72/59 6/64/58 21/71/60
f 8/63/57 22/72/59 9/70/61
f 22/72/59 24/73/62 9/70/61
f 6/64/58 11/65/63 21/71/60
f 21/71/60 11/65/63 23/74/64
f 4/67/65 2/68/66 30/81/67
f 30/81/67 2/68/66 29/80/68
f 4/67/65 30/81/67 12/66/69
f 30/81/67 32/82/70 12/66/69
f 2/68/66 10/69/71 29/80/68
f 29/80/68 10/69/71 31/79/72
f 11/65/63 12/66/69 23/74/64
f 23/74/64 12/66/69 15/75/73
f 15/75/73 12/66/69 16/78/74
f 12/66/69 32/82/70 16/78/74
f 16/78/74 32/82/70 14/77/75
f 32/82/70 31/79/72 14/77/75
f 31/79/72 10/69/71 14/77/75
f 23/74/64 15/75/73 24/73/62
f 15/75/73 13/76/76 24/73/62
f 24/73/62 13/76/76 9/70/61
f 13/76/76 14/77/75 9/70/61
f 14/77/75 10/69/71 9/70/61
s 17
f 22/103/77 21/104/78 26/106/79
f 26/106/79 21/104/78 25/105/80
s 18
f 21/28/81 23/29/82 25/33/83
f 25/33/83 23/29/82 27/32/84
s 19
f 23/91/85 24/92/86 27/94/87
f 27/94/87 24/92/86 28/93/88
s 20
f 24/27/89 22/30/90 28/34/91
f 28/34/91 22/30/90 26/31/92
s 21
f 30/83/93 29/84/94 34/86/95
f 34/86/95 29/84/94 33/85/96
s 22
f 29/36/97 31/37/98 33/41/99
f 33/41/99 31/37/98 35/40/100
s 23
f 31/95/101 32/96/102 35/98/103
f 35/98/103 32/96/102 36/97/104
s 24
f 32/35/105 30/38/106 36/42/107
f 36/42/107 30/38/106 34/39/108
g default
v -0.615808 0.456290 1.502018
v 0.615808 0.456290 1.502018
v -0.615808 0.606000 1.502018
v 0.615808 0.606000 1.502018
v -0.615808 0.606000 -1.502018
v 0.615808 0.606000 -1.502018
v -0.615808 0.456290 -1.502018
v 0.615808 0.456290 -1.502018
vt 0.113367 1.243966
vt 0.114516 -0.247393
vt 0.614546 -0.243965
vt 0.613397 1.247394
vt 0.612511 1.252741
vt 0.613801 -0.248853
vt 0.375000 0.750000
vt 0.625000 0.750000
vt 0.375000 1.000000
vt 0.625000 1.000000
vt 0.850237 -0.800665
vt 0.857089 1.666967
vt 0.992780 2.151685
vt 0.998333 -1.186571
vt -0.000000 -0.000000
vt 1.000000 -0.000000
vt 1.000000 1.000000
vt -0.000000 1.000000
vt 0.370135 1.667107
vt 0.363283 -0.800525
vt 0.339868 -1.151685
vt 0.334315 2.186572
vt 0.115402 -0.252740
vt 0.114112 1.248854
vn 0.000000 0.000000 1.000000
vn 0.000000 0.000000 1.000000
vn 0.000000 0.000000 1.000000
vn 0.000000 0.000000 1.000000
vn 0.000000 1.000000 0.000000
vn 0.000000 1.000000 0.000000
vn 0.000000 1.000000 0.000000
vn 0.000000 1.000000 0.000000
vn 0.000000 0.000000 -1.000000
vn 0.000000 0.000000 -1.000000
vn 0.000000 0.000000 -1.000000
vn 0.000000 0.000000 -1.000000
vn 0.000000 -1.000000 0.000000
vn 0.000000 -1.000000 0.000000
vn 0.000000 -1.000000 0.000000
vn 0.000000 -1.000000 0.000000
vn 1.000000 0.000000 0.000000
vn 1.000000 0.000000 0.000000
vn 1.000000 0.000000 0.000000
vn 1.000000 0.000000 0.000000
vn -1.000000 0.000000 0.000000
vn -1.000000 0.000000 0.000000
vn -1.000000 0.000000 0.000000
vn -1.000000 0.000000 0.000000
s 1
g barril:pCube2
usemtl barril:lambert1SG
f 37/108/109 38/109/110 39/111/111
f 39/111/111 38/109/110 40/110/112
s 2
f 39/122/113 40/123/114 41/125/115
f 41/125/115 40/123/114 42/124/116
s 3
f 41/112/117 42/113/118 43/131/119
f 43/131/119 42/113/118 44/130/120
s 4
f 43/114/121 44/115/122 37/116/123
f 37/116/123 44/115/122 38/117/124
s 5
f 38/118/125 44/119/126 40/127/127
f 40/127/127 44/119/126 42/126/128
s 6
f 43/120/129 37/121/130 41/129/131
f 41/129/131 37/121/130 39/128/132
