# This file uses centimeters as units for non-parametric coordinates.

mtllib mesa.mtl
g default
v 1.992280 -1.455162 1.060256
v 2.353902 -1.455162 1.060256
v 1.992280 -0.162390 1.060256
v 2.353902 -0.162390 1.060256
v 1.992280 -0.162390 0.704102
v 2.353902 -0.162390 0.704102
v 1.992280 -1.455162 0.704102
v 2.353902 -1.455162 0.704102
vt 0.375000 0.000000
vt 0.625000 0.000000
vt 0.625000 0.250000
vt 0.375000 0.250000
vt 0.625000 0.500000
vt 0.375000 0.500000
vt 0.625000 0.750000
vt 0.375000 0.750000
vt 0.625000 1.000000
vt 0.375000 1.000000
vt 0.875000 0.000000
vt 0.875000 0.250000
vt 0.125000 0.000000
vt 0.125000 0.250000
vn 0.000000 0.000000 1.000000
vn 0.000000 0.000000 1.000000
vn 0.000000 0.000000 1.000000
vn 0.000000 0.000000 1.000000
vn 0.000000 1.000000 0.000000
vn 0.000000 1.000000 0.000000
vn 0.000000 1.000000 0.000000
vn 0.000000 1.000000 0.000000
vn 0.000000 0.000000 -1.000000
vn 0.000000 0.000000 -1.000000
vn 0.000000 0.000000 -1.000000
vn 0.000000 0.000000 -1.000000
vn 0.000000 -1.000000 0.000000
vn 0.000000 -1.000000 0.000000
vn 0.000000 -1.000000 0.000000
vn 0.000000 -1.000000 0.000000
vn 1.000000 0.000000 0.000000
vn 1.000000 0.000000 0.000000
vn 1.000000 0.000000 0.000000
vn 1.000000 0.000000 0.000000
vn -1.000000 0.000000 0.000000
vn -1.000000 0.000000 0.000000
vn -1.000000 0.000000 0.000000
vn -1.000000 0.000000 0.000000
s 1
g mesa1:pCube682 group4
usemtl mesa1:lambert4SG
f 1/1/1 2/2/2 3/4/3
f 3/4/3 2/2/2 4/3/4
s 2
f 3/4/5 4/3/6 5/6/7
f 5/6/7 4/3/6 6/5/8
s 3
f 5/6/9 6/5/10 7/8/11
f 7/8/11 6/5/10 8/7/12
s 4
f 7/8/13 8/7/14 1/10/15
f 1/10/15 8/7/14 2/9/16
s 5
f 2/2/17 8/11/18 4/3/19
f 4/3/19 8/11/18 6/12/20
s 6
f 7/13/21 1/1/22 5/14/23
f 5/14/23 1/1/22 3/4/24
g default
v -2.357577 -1.455162 1.066605
v -1.995956 -1.455162 1.066605
v -2.357577 -0.162390 1.066605
v -1.995956 -0.162390 1.066605
v -2.357577 -0.162390 0.710451
v -1.995956 -0.162390 0.710451
v -2.357577 -1.455162 0.710451
v -1.995956 -1.455162 0.710451
vt 0.375000 0.000000
vt 0.625000 0.000000
vt 0.625000 0.250000
vt 0.375000 0.250000
vt 0.625000 0.500000
vt 0.375000 0.500000
vt 0.625000 0.750000
vt 0.375000 0.750000
vt 0.625000 1.000000
vt 0.375000 1.000000
vt 0.875000 0.000000
vt 0.875000 0.250000
vt 0.125000 0.000000
vt 0.125000 0.250000
vn 0.000000 0.000000 1.000000
vn 0.000000 0.000000 1.000000
vn 0.000000 0.000000 1.000000
vn 0.000000 0.000000 1.000000
vn 0.000000 1.000000 0.000000
vn 0.000000 1.000000 0.000000
vn 0.000000 1.000000 0.000000
vn 0.000000 1.000000 0.000000
vn 0.000000 0.000000 -1.000000
vn 0.000000 0.000000 -1.000000
vn 0.000000 0.000000 -1.000000
vn 0.000000 0.000000 -1.000000
vn 0.000000 -1.000000 0.000000
vn 0.000000 -1.000000 0.000000
vn 0.000000 -1.000000 0.000000
vn 0.000000 -1.000000 0.000000
vn 1.000000 0.000000 0.000000
vn 1.000000 0.000000 0.000000
vn 1.000000 0.000000 0.000000
vn 1.000000 0.000000 0.000000
vn -1.000000 0.000000 0.000000
vn -1.000000 0.000000 0.000000
vn -1.000000 0.000000 0.000000
vn -1.000000 0.000000 0.000000
s 1
g group4 mesa1:pCube678
usemtl mesa1:lambert4SG
f 9/15/25 10/16/26 11/18/27
f 11/18/27 10/16/26 12/17/28
s 2
f 11/18/29 12/17/30 13/20/31
f 13/20/31 12/17/30 14/19/32
s 3
f 13/20/33 14/19/34 15/22/35
f 15/22/35 14/19/34 16/21/36
s 4
f 15/22/37 16/21/38 9/24/39
f 9/24/39 16/21/38 10/23/40
s 5
f 10/16/41 16/25/42 12/17/43
f 12/17/43 16/25/42 14/26/44
s 6
f 15/27/45 9/15/46 13/28/47
f 13/28/47 9/15/46 11/18/48
g default
v -2.367617 -0.183755 1.070261
v 2.352568 -0.183755 1.070261
v -2.367617 0.167633 1.070261
v 2.352568 0.167633 1.070261
v -2.367617 0.167633 -1.070925
v 2.352568 0.167633 -1.070925
v -2.367617 -0.183755 -1.070925
v 2.352568 -0.183755 -1.070925
vt 0.375000 0.000000
vt 0.625000 0.000000
vt 0.625000 0.250000
vt 0.375000 0.250000
vt 0.625000 0.500000
vt 0.375000 0.500000
vt 0.625000 0.750000
vt 0.375000 0.750000
vt 0.625000 1.000000
vt 0.375000 1.000000
vt 0.875000 0.000000
vt 0.875000 0.250000
vt 0.125000 0.000000
vt 0.125000 0.250000
vn 0.000000 0.000000 1.000000
vn 0.000000 0.000000 1.000000
vn 0.000000 0.000000 1.000000
vn 0.000000 0.000000 1.000000
vn 0.000000 1.000000 0.000000
vn 0.000000 1.000000 0.000000
vn 0.000000 1.000000 0.000000
vn 0.000000 1.000000 0.000000
vn 0.000000 0.000000 -1.000000
vn 0.000000 0.000000 -1.000000
vn 0.000000 0.000000 -1.000000
vn 0.000000 0.000000 -1.000000
vn 0.000000 -1.000000 0.000000
vn 0.000000 -1.000000 0.000000
vn 0.000000 -1.000000 0.000000
vn 0.000000 -1.000000 0.000000
vn 1.000000 0.000000 0.000000
vn 1.000000 0.000000 0.000000
vn 1.000000 0.000000 0.000000
vn 1.000000 0.000000 0.000000
vn -1.000000 0.000000 0.000000
vn -1.000000 0.000000 0.000000
vn -1.000000 0.000000 0.000000
vn -1.000000 0.000000 0.000000
s 1
g group4 mesa1:pCube679
usemtl mesa1:lambert4SG
f 17/29/49 18/30/50 19/32/51
f 19/32/51 18/30/50 20/31/52
s 2
f 19/32/53 20/31/54 21/34/55
f 21/34/55 20/31/54 22/33/56
s 3
f 21/34/57 22/33/58 23/36/59
f 23/36/59 22/33/58 24/35/60
s 4
f 23/36/61 24/35/62 17/38/63
f 17/38/63 24/35/62 18/37/64
s 5
f 18/30/65 24/39/66 20/31/67
f 20/31/67 24/39/66 22/40/68
s 6
f 23/41/69 17/29/70 21/42/71
f 21/42/71 17/29/70 19/32/72
g default
v -2.357577 -1.455162 -0.711115
v -1.995956 -1.455162 -0.711115
v -2.357577 -0.162390 -0.711115
v -1.995956 -0.162390 -0.711115
v -2.357577 -0.162390 -1.067268
v -1.995956 -0.162390 -1.067268
v -2.357577 -1.455162 -1.067268
v -1.995956 -1.455162 -1.067268
vt 0.375000 0.000000
vt 0.625000 0.000000
vt 0.625000 0.250000
vt 0.375000 0.250000
vt 0.625000 0.500000
vt 0.375000 0.500000
vt 0.625000 0.750000
vt 0.375000 0.750000
vt 0.625000 1.000000
vt 0.375000 1.000000
vt 0.875000 0.000000
vt 0.875000 0.250000
vt 0.125000 0.000000
vt 0.125000 0.250000
vn 0.000000 0.000000 1.000000
vn 0.000000 0.000000 1.000000
vn 0.000000 0.000000 1.000000
vn 0.000000 0.000000 1.000000
vn 0.000000 1.000000 0.000000
vn 0.000000 1.000000 0.000000
vn 0.000000 1.000000 0.000000
vn 0.000000 1.000000 0.000000
vn 0.000000 0.000000 -1.000000
vn 0.000000 0.000000 -1.000000
vn 0.000000 0.000000 -1.000000
vn 0.000000 0.000000 -1.000000
vn 0.000000 -1.000000 0.000000
vn 0.000000 -1.000000 0.000000
vn 0.000000 -1.000000 0.000000
vn 0.000000 -1.000000 0.000000
vn 1.000000 0.000000 0.000000
vn 1.000000 0.000000 0.000000
vn 1.000000 0.000000 0.000000
vn 1.000000 0.000000 0.000000
vn -1.000000 0.000000 0.000000
vn -1.000000 0.000000 0.000000
vn -1.000000 0.000000 0.000000
vn -1.000000 0.000000 0.000000
s 1
g group4 mesa1:pCube680
usemtl mesa1:lambert4SG
f 25/43/73 26/44/74 27/46/75
f 27/46/75 26/44/74 28/45/76
s 2
f 27/46/77 28/45/78 29/48/79
f 29/48/79 28/45/78 30/47/80
s 3
f 29/48/81 30/47/82 31/50/83
f 31/50/83 30/47/82 32/49/84
s 4
f 31/50/85 32/49/86 25/52/87
f 25/52/87 32/49/86 26/51/88
s 5
f 26/44/89 32/53/90 28/45/91
f 28/45/91 32/53/90 30/54/92
s 6
f 31/55/93 25/43/94 29/56/95
f 29/56/95 25/43/94 27/46/96
g default
v 1.992280 -1.455162 -0.711115
v 2.353902 -1.455162 -0.711115
v 1.992280 -0.162390 -0.711115
v 2.353902 -0.162390 -0.711115
v 1.992280 -0.162390 -1.067268
v 2.353902 -0.162390 -1.067268
v 1.992280 -1.455162 -1.067268
v 2.353902 -1.455162 -1.067268
vt 0.375000 0.000000
vt 0.625000 0.000000
vt 0.625000 0.250000
vt 0.375000 0.250000
vt 0.625000 0.500000
vt 0.375000 0.500000
vt 0.625000 0.750000
vt 0.375000 0.750000
vt 0.625000 1.000000
vt 0.375000 1.000000
vt 0.875000 0.000000
vt 0.875000 0.250000
vt 0.125000 0.000000
vt 0.125000 0.250000
vn 0.000000 0.000000 1.000000
vn 0.000000 0.000000 1.000000
vn 0.000000 0.000000 1.000000
vn 0.000000 0.000000 1.000000
vn 0.000000 1.000000 0.000000
vn 0.000000 1.000000 0.000000
vn 0.000000 1.000000 0.000000
vn 0.000000 1.000000 0.000000
vn 0.000000 0.000000 -1.000000
vn 0.000000 0.000000 -1.000000
vn 0.000000 0.000000 -1.000000
vn 0.000000 0.000000 -1.000000
vn 0.000000 -1.000000 0.000000
vn 0.000000 -1.000000 0.000000
vn 0.000000 -1.000000 0.000000
vn 0.000000 -1.000000 0.000000
vn 1.000000 0.000000 0.000000
vn 1.000000 0.000000 0.000000
vn 1.000000 0.000000 0.000000
vn 1.000000 0.000000 0.000000
vn -1.000000 0.000000 0.000000
vn -1.000000 0.000000 0.000000
vn -1.000000 0.000000 0.000000
vn -1.000000 0.000000 0.000000
s 1
g group4 mesa1:pCube681
usemtl mesa1:lambert4SG
f 33/57/97 34/58/98 35/60/99
f 35/60/99 34/58/98 36/59/100
s 2
f 35/60/101 36/59/102 37/62/103
f 37/62/103 36/59/102 38/61/104
s 3
f 37/62/105 38/61/106 39/64/107
f 39/64/107 38/61/106 40/63/108
s 4
f 39/64/109 40/63/110 33/66/111
f 33/66/111 40/63/110 34/65/112
s 5
f 34/58/113 40/67/114 36/59/115
f 36/59/115 40/67/114 38/68/116
s 6
f 39/69/117 33/57/118 37/70/119
f 37/70/119 33/57/118 35/60/120
g default
v 1.992280 -1.455162 1.060256
v 2.353902 -1.455162 1.060256
v 1.992280 -0.162390 1.060256
v 2.353902 -0.162390 1.060256
v 1.992280 -0.162390 0.704102
v 2.353902 -0.162390 0.704102
v 1.992280 -1.455162 0.704102
v 2.353902 -1.455162 0.704102
vt 0.375000 0.000000
vt 0.625000 0.000000
vt 0.625000 0.250000
vt 0.375000 0.250000
vt 0.625000 0.500000
vt 0.375000 0.500000
vt 0.625000 0.750000
vt 0.375000 0.750000
vt 0.625000 1.000000
vt 0.375000 1.000000
vt 0.875000 0.000000
vt 0.875000 0.250000
vt 0.125000 0.000000
vt 0.125000 0.250000
vn 0.000000 0.000000 1.000000
vn 0.000000 0.000000 1.000000
vn 0.000000 0.000000 1.000000
vn 0.000000 0.000000 1.000000
vn 0.000000 1.000000 0.000000
vn 0.000000 1.000000 0.000000
vn 0.000000 1.000000 0.000000
vn 0.000000 1.000000 0.000000
vn 0.000000 0.000000 -1.000000
vn 0.000000 0.000000 -1.000000
vn 0.000000 0.000000 -1.000000
vn 0.000000 0.000000 -1.000000
vn 0.000000 -1.000000 0.000000
vn 0.000000 -1.000000 0.000000
vn 0.000000 -1.000000 0.000000
vn 0.000000 -1.000000 0.000000
vn 1.000000 0.000000 0.000000
vn 1.000000 0.000000 0.000000
vn 1.000000 0.000000 0.000000
vn 1.000000 0.000000 0.000000
vn -1.000000 0.000000 0.000000
vn -1.000000 0.000000 0.000000
vn -1.000000 0.000000 0.000000
vn -1.000000 0.000000 0.000000
s 1
g mesa1:pCube682 group4
f 41/71/121 42/72/122 43/74/123
f 43/74/123 42/72/122 44/73/124
s 2
f 43/74/125 44/73/126 45/76/127
f 45/76/127 44/73/126 46/75/128
s 3
f 45/76/129 46/75/130 47/78/131
f 47/78/131 46/75/130 48/77/132
s 4
f 47/78/133 48/77/134 41/80/135
f 41/80/135 48/77/134 42/79/136
s 5
f 42/72/137 48/81/138 44/73/139
f 44/73/139 48/81/138 46/82/140
s 6
f 47/83/141 41/71/142 45/84/143
f 45/84/143 41/71/142 43/74/144
g default
v -2.357577 -1.455162 1.066605
v -1.995956 -1.455162 1.066605
v -2.357577 -0.162390 1.066605
v -1.995956 -0.162390 1.066605
v -2.357577 -0.162390 0.710451
v -1.995956 -0.162390 0.710451
v -2.357577 -1.455162 0.710451
v -1.995956 -1.455162 0.710451
vt 0.375000 0.000000
vt 0.625000 0.000000
vt 0.625000 0.250000
vt 0.375000 0.250000
vt 0.625000 0.500000
vt 0.375000 0.500000
vt 0.625000 0.750000
vt 0.375000 0.750000
vt 0.625000 1.000000
vt 0.375000 1.000000
vt 0.875000 0.000000
vt 0.875000 0.250000
vt 0.125000 0.000000
vt 0.125000 0.250000
vn 0.000000 0.000000 1.000000
vn 0.000000 0.000000 1.000000
vn 0.000000 0.000000 1.000000
vn 0.000000 0.000000 1.000000
vn 0.000000 1.000000 0.000000
vn 0.000000 1.000000 0.000000
vn 0.000000 1.000000 0.000000
vn 0.000000 1.000000 0.000000
vn 0.000000 0.000000 -1.000000
vn 0.000000 0.000000 -1.000000
vn 0.000000 0.000000 -1.000000
vn 0.000000 0.000000 -1.000000
vn 0.000000 -1.000000 0.000000
vn 0.000000 -1.000000 0.000000
vn 0.000000 -1.000000 0.000000
vn 0.000000 -1.000000 0.000000
vn 1.000000 0.000000 0.000000
vn 1.000000 0.000000 0.000000
vn 1.000000 0.000000 0.000000
vn 1.000000 0.000000 0.000000
vn -1.000000 0.000000 0.000000
vn -1.000000 0.000000 0.000000
vn -1.000000 0.000000 0.000000
vn -1.000000 0.000000 0.000000
s 1
g group4 mesa1:pCube678
f 49/85/145 50/86/146 51/88/147
f 51/88/147 50/86/146 52/87/148
s 2
f 51/88/149 52/87/150 53/90/151
f 53/90/151 52/87/150 54/89/152
s 3
f 53/90/153 54/89/154 55/92/155
f 55/92/155 54/89/154 56/91/156
s 4
f 55/92/157 56/91/158 49/94/159
f 49/94/159 56/91/158 50/93/160
s 5
f 50/86/161 56/95/162 52/87/163
f 52/87/163 56/95/162 54/96/164
s 6
f 55/97/165 49/85/166 53/98/167
f 53/98/167 49/85/166 51/88/168
g default
v -2.367617 -0.183755 1.070261
v 2.352568 -0.183755 1.070261
v -2.367617 0.167633 1.070261
v 2.352568 0.167633 1.070261
v -2.367617 0.167633 -1.070925
v 2.352568 0.167633 -1.070925
v -2.367617 -0.183755 -1.070925
v 2.352568 -0.183755 -1.070925
vt 0.375000 0.000000
vt 0.625000 0.000000
vt 0.625000 0.250000
vt 0.375000 0.250000
vt 0.625000 0.500000
vt 0.375000 0.500000
vt 0.625000 0.750000
vt 0.375000 0.750000
vt 0.625000 1.000000
vt 0.375000 1.000000
vt 0.875000 0.000000
vt 0.875000 0.250000
vt 0.125000 0.000000
vt 0.125000 0.250000
vn 0.000000 0.000000 1.000000
vn 0.000000 0.000000 1.000000
vn 0.000000 0.000000 1.000000
vn 0.000000 0.000000 1.000000
vn 0.000000 1.000000 0.000000
vn 0.000000 1.000000 0.000000
vn 0.000000 1.000000 0.000000
vn 0.000000 1.000000 0.000000
vn 0.000000 0.000000 -1.000000
vn 0.000000 0.000000 -1.000000
vn 0.000000 0.000000 -1.000000
vn 0.000000 0.000000 -1.000000
vn 0.000000 -1.000000 0.000000
vn 0.000000 -1.000000 0.000000
vn 0.000000 -1.000000 0.000000
vn 0.000000 -1.000000 0.000000
vn 1.000000 0.000000 0.000000
vn 1.000000 0.000000 0.000000
vn 1.000000 0.000000 0.000000
vn 1.000000 0.000000 0.000000
vn -1.000000 0.000000 0.000000
vn -1.000000 0.000000 0.000000
vn -1.000000 0.000000 0.000000
vn -1.000000 0.000000 0.000000
s 1
g group4 mesa1:pCube679
f 57/99/169 58/100/170 59/102/171
f 59/102/171 58/100/170 60/101/172
s 2
f 59/102/173 60/101/174 61/104/175
f 61/104/175 60/101/174 62/103/176
s 3
f 61/104/177 62/103/178 63/106/179
f 63/106/179 62/103/178 64/105/180
s 4
f 63/106/181 64/105/182 57/108/183
f 57/108/183 64/105/182 58/107/184
s 5
f 58/100/185 64/109/186 60/101/187
f 60/101/187 64/109/186 62/110/188
s 6
f 63/111/189 57/99/190 61/112/191
f 61/112/191 57/99/190 59/102/192
g default
v -2.357577 -1.455162 -0.711115
v -1.995956 -1.455162 -0.711115
v -2.357577 -0.162390 -0.711115
v -1.995956 -0.162390 -0.711115
v -2.357577 -0.162390 -1.067268
v -1.995956 -0.162390 -1.067268
v -2.357577 -1.455162 -1.067268
v -1.995956 -1.455162 -1.067268
vt 0.375000 0.000000
vt 0.625000 0.000000
vt 0.625000 0.250000
vt 0.375000 0.250000
vt 0.625000 0.500000
vt 0.375000 0.500000
vt 0.625000 0.750000
vt 0.375000 0.750000
vt 0.625000 1.000000
vt 0.375000 1.000000
vt 0.875000 0.000000
vt 0.875000 0.250000
vt 0.125000 0.000000
vt 0.125000 0.250000
vn 0.000000 0.000000 1.000000
vn 0.000000 0.000000 1.000000
vn 0.000000 0.000000 1.000000
vn 0.000000 0.000000 1.000000
vn 0.000000 1.000000 0.000000
vn 0.000000 1.000000 0.000000
vn 0.000000 1.000000 0.000000
vn 0.000000 1.000000 0.000000
vn 0.000000 0.000000 -1.000000
vn 0.000000 0.000000 -1.000000
vn 0.000000 0.000000 -1.000000
vn 0.000000 0.000000 -1.000000
vn 0.000000 -1.000000 0.000000
vn 0.000000 -1.000000 0.000000
vn 0.000000 -1.000000 0.000000
vn 0.000000 -1.000000 0.000000
vn 1.000000 0.000000 0.000000
vn 1.000000 0.000000 0.000000
vn 1.000000 0.000000 0.000000
vn 1.000000 0.000000 0.000000
vn -1.000000 0.000000 0.000000
vn -1.000000 0.000000 0.000000
vn -1.000000 0.000000 0.000000
vn -1.000000 0.000000 0.000000
s 1
g group4 mesa1:pCube680
f 65/113/193 66/114/194 67/116/195
f 67/116/195 66/114/194 68/115/196
s 2
f 67/116/197 68/115/198 69/118/199
f 69/118/199 68/115/198 70/117/200
s 3
f 69/118/201 70/117/202 71/120/203
f 71/120/203 70/117/202 72/119/204
s 4
f 71/120/205 72/119/206 65/122/207
f 65/122/207 72/119/206 66/121/208
s 5
f 66/114/209 72/123/210 68/115/211
f 68/115/211 72/123/210 70/124/212
s 6
f 71/125/213 65/113/214 69/126/215
f 69/126/215 65/113/214 67/116/216
g default
v 1.992280 -1.455162 -0.711115
v 2.353902 -1.455162 -0.711115
v 1.992280 -0.162390 -0.711115
v 2.353902 -0.162390 -0.711115
v 1.992280 -0.162390 -1.067268
v 2.353902 -0.162390 -1.067268
v 1.992280 -1.455162 -1.067268
v 2.353902 -1.455162 -1.067268
vt 0.375000 0.000000
vt 0.625000 0.000000
vt 0.625000 0.250000
vt 0.375000 0.250000
vt 0.625000 0.500000
vt 0.375000 0.500000
vt 0.625000 0.750000
vt 0.375000 0.750000
vt 0.625000 1.000000
vt 0.375000 1.000000
vt 0.875000 0.000000
vt 0.875000 0.250000
vt 0.125000 0.000000
vt 0.125000 0.250000
vn 0.000000 0.000000 1.000000
vn 0.000000 0.000000 1.000000
vn 0.000000 0.000000 1.000000
vn 0.000000 0.000000 1.000000
vn 0.000000 1.000000 0.000000
vn 0.000000 1.000000 0.000000
vn 0.000000 1.000000 0.000000
vn 0.000000 1.000000 0.000000
vn 0.000000 0.000000 -1.000000
vn 0.000000 0.000000 -1.000000
vn 0.000000 0.000000 -1.000000
vn 0.000000 0.000000 -1.000000
vn 0.000000 -1.000000 0.000000
vn 0.000000 -1.000000 0.000000
vn 0.000000 -1.000000 0.000000
vn 0.000000 -1.000000 0.000000
vn 1.000000 0.000000 0.000000
vn 1.000000 0.000000 0.000000
vn 1.000000 0.000000 0.000000
vn 1.000000 0.000000 0.000000
vn -1.000000 0.000000 0.000000
vn -1.000000 0.000000 0.000000
vn -1.000000 0.000000 0.000000
vn -1.000000 0.000000 0.000000
s 1
g group4 mesa1:pCube681
f 73/127/217 74/128/218 75/130/219
f 75/130/219 74/128/218 76/129/220
s 2
f 75/130/221 76/129/222 77/132/223
f 77/132/223 76/129/222 78/131/224
s 3
f 77/132/225 78/131/226 79/134/227
f 79/134/227 78/131/226 80/133/228
s 4
f 79/134/229 80/133/230 73/136/231
f 73/136/231 80/133/230 74/135/232
s 5
f 74/128/233 80/137/234 76/129/235
f 76/129/235 80/137/234 78/138/236
s 6
f 79/139/237 73/127/238 77/140/239
f 77/140/239 73/127/238 75/130/240
